<svg width="50" height="54" viewBox="0 0 50 54" fill="none" xmlns="http://www.w3.org/2000/svg">
<path fill-rule="evenodd" clip-rule="evenodd" d="M8.97075 26.0686C10.8479 26.0817 11.8434 25.9107 13.1066 26.1344C17.1546 26.8492 19.9484 29.0641 22.6895 34.6165C24.5491 38.3839 22.1501 46.3748 20.7203 50.2606L19.6721 52.4973C19.6721 54.2604 22.8167 54.4534 23.343 52.4973C23.7903 51.1027 24.1851 50.0369 24.5315 49.0852C25.9394 45.2169 26.106 42.91 26.6279 39.033C26.8385 37.476 27.1937 35.8971 27.9261 35.2042C29.755 33.4806 31.176 30.314 33.5619 28.6562C35.2065 27.5159 38.4608 27.301 41.5484 27.2396C41.5747 26.3098 41.0265 25.6695 40.2151 25.38C36.6407 23.845 33.1365 25.0467 29.6585 27.5247C28.8471 28.0992 29.0007 28.2308 28.5972 27.2045C27.8603 25.3361 27.4876 22.9634 27.6367 19.8758C27.5183 19.1478 27.5709 18.6083 27.0095 18.0864C26.8121 17.9022 26.6323 17.8321 26.4744 17.8935C26.0841 18.047 25.7815 19.5381 25.6324 20.025C25.4526 20.6346 24.1851 25.551 23.5272 26.8756C23.2465 27.4413 23.2333 27.165 22.9965 26.8273C20.8606 23.7397 12.361 19.0864 8.97075 26.0686ZM15.6547 10.8762C15.6152 10.9815 15.567 11.0779 15.5056 11.1657C15.5187 11.9683 15.6635 12.7972 15.8784 13.5954C16.2248 14.8936 16.7599 16.1084 17.2292 17.0338C17.523 17.6128 17.295 18.3233 16.7117 18.6171C16.1327 18.911 15.4223 18.6829 15.1284 18.0996C14.6021 17.0645 14.0013 15.6918 13.6021 14.2006C13.396 13.4243 13.2425 12.6174 13.1811 11.8016C8.24271 11.6744 5.06301 13.6831 3.51045 16.4461C2.8131 17.6917 2.43154 19.0864 2.36137 20.5118C2.2912 21.9503 2.53241 23.4152 3.08064 24.7791C4.43585 28.165 7.67695 30.9236 12.6504 31.0947C13.2995 31.1166 13.8083 31.6561 13.7864 32.3052C13.7644 32.9543 13.225 33.463 12.5759 33.4411C6.52787 33.2306 2.5675 29.8272 0.896515 25.6519C0.225489 23.9722 -0.0727449 22.1696 0.0149709 20.3977C0.102687 18.6127 0.580738 16.8584 1.4579 15.2927C3.45782 11.7358 7.48836 9.16574 13.6723 9.45958C16.2336 2.86774 21.1062 0.179253 26.0753 0.00820747C29.3296 -0.101437 32.6145 0.894137 35.2855 2.59582C37.9959 4.31944 40.0967 6.78425 40.9475 9.578C41.1975 10.4025 41.3423 11.2534 41.3598 12.1174C43.329 12.6437 45.6403 14.0647 47.3596 16.0558C48.8946 17.8364 49.9823 20.0864 49.9998 22.5994C50.013 24.573 49.3156 26.6475 48.1446 28.415C47.2762 29.7263 46.1403 30.8754 44.8334 31.7043C43.4913 32.5552 41.965 33.0683 40.3379 33.0814C38.8073 33.0902 37.2196 32.6516 35.6583 31.6122C35.1144 31.2526 34.9697 30.5245 35.325 29.9807C35.6846 29.4369 36.4126 29.2921 36.9565 29.6474C38.1056 30.4105 39.2502 30.735 40.3291 30.7263C41.4738 30.7175 42.5791 30.3403 43.5702 29.7088C44.5965 29.0597 45.4912 28.1474 46.1798 27.108C47.1096 25.7089 47.6578 24.0994 47.649 22.5994C47.6359 20.7135 46.7806 18.9811 45.5789 17.5865C44.2676 16.0646 42.5703 14.9594 41.0967 14.4813C40.5484 16.7049 39.1231 18.9548 36.5618 21.0644C36.0618 21.4766 35.3206 21.4021 34.9083 20.9021C34.496 20.4021 34.5706 19.6609 35.0706 19.2487C38.702 16.2532 39.5441 13.034 38.6976 10.249C38.0178 8.01227 36.2811 6.00358 34.0224 4.56504C31.7286 3.10458 28.9217 2.24935 26.1455 2.34583C21.9264 2.50372 17.7599 4.91591 15.6547 10.8762Z" fill="white"/>
</svg>
