<svg width="25" height="26" viewBox="0 0 25 26" fill="none" xmlns="http://www.w3.org/2000/svg">
<path fill-rule="evenodd" clip-rule="evenodd" d="M4.31182 12.5142C5.21284 12.5205 5.69071 12.4384 6.297 12.5458C8.24008 12.8889 9.58108 13.952 10.8968 16.6172C11.7894 18.4255 10.6379 22.2612 9.9516 24.1264L9.44846 25.2C9.44846 26.0463 10.9579 26.1389 11.2105 25.2C11.4252 24.5306 11.6147 24.019 11.781 23.5622C12.4568 21.7054 12.5368 20.5981 12.7873 18.7371C12.8883 17.9898 13.0588 17.2319 13.4104 16.8993C14.2883 16.0719 14.9703 14.552 16.1156 13.7562C16.905 13.2089 18.467 13.1058 19.9491 13.0763C19.9617 12.63 19.6986 12.3226 19.3091 12.1837C17.5934 11.4469 15.9114 12.0237 14.2419 13.2131C13.8525 13.4889 13.9262 13.552 13.7325 13.0594C13.3788 12.1626 13.1999 11.0237 13.2715 9.54168C13.2146 9.19222 13.2399 8.93329 12.9704 8.68277C12.8757 8.59435 12.7894 8.56067 12.7136 8.59014C12.5262 8.66382 12.381 9.37958 12.3094 9.61326C12.2231 9.90588 11.6147 12.2658 11.2989 12.9015C11.1642 13.1731 11.1579 13.0405 11.0442 12.8784C10.019 11.3963 5.93912 9.16275 4.31182 12.5142ZM7.52011 5.22186C7.50117 5.27238 7.47801 5.31869 7.44854 5.3608C7.45485 5.74604 7.52432 6.14392 7.62748 6.52707C7.79379 7.1502 8.05062 7.73333 8.27587 8.17753C8.41692 8.45541 8.30745 8.79645 8.02746 8.9375C7.74958 9.07854 7.40854 8.96907 7.26749 8.68909C7.01487 8.19226 6.72646 7.53334 6.53489 6.81758C6.43595 6.44496 6.36227 6.05761 6.33279 5.66605C3.96236 5.605 2.43611 6.56917 1.69087 7.89543C1.35615 8.4933 1.173 9.16275 1.13932 9.84693C1.10563 10.5374 1.22142 11.2406 1.48457 11.8953C2.13507 13.5205 3.69079 14.8446 6.07807 14.9267C6.38963 14.9373 6.63383 15.1962 6.62331 15.5078C6.61278 15.8193 6.35384 16.0635 6.04228 16.053C3.13924 15.952 1.23826 14.3183 0.436186 12.3142C0.114094 11.5079 -0.0290582 10.6427 0.0130454 9.7922C0.055149 8.93539 0.284614 8.09332 0.705649 7.34177C1.66561 5.63447 3.60027 4.40084 6.56857 4.54188C7.798 1.3778 10.1369 0.0873233 12.522 0.00522132C14.0841 -0.0474082 15.6608 0.430468 16.9429 1.24728C18.2439 2.07461 19.2523 3.25772 19.6607 4.59872C19.7807 4.9945 19.8501 5.4029 19.8586 5.81762C20.8038 6.07024 21.9132 6.75232 22.7385 7.70807C23.4753 8.56277 23.9973 9.64273 24.0058 10.849C24.0121 11.7963 23.6774 12.7921 23.1153 13.6405C22.6985 14.2699 22.1532 14.8215 21.5259 15.2194C20.8817 15.6278 20.1491 15.8741 19.3681 15.8804C18.6334 15.8846 17.8713 15.6741 17.1218 15.1751C16.8608 15.0025 16.7913 14.6531 16.9618 14.392C17.1345 14.131 17.4839 14.0615 17.745 14.232C18.2965 14.5983 18.846 14.7541 19.3638 14.7499C19.9133 14.7457 20.4438 14.5646 20.9196 14.2615C21.4122 13.9499 21.8416 13.5121 22.1722 13.0131C22.6185 12.3416 22.8816 11.569 22.8774 10.849C22.8711 9.94377 22.4606 9.11223 21.8837 8.44278C21.2543 7.71228 20.4396 7.18178 19.7323 6.95231C19.4691 8.01964 18.7849 9.0996 17.5555 10.1122C17.3155 10.3101 16.9597 10.2743 16.7618 10.0343C16.564 9.7943 16.5998 9.43853 16.8397 9.24064C18.5828 7.8028 18.987 6.2576 18.5807 4.92081C18.2544 3.84717 17.4208 2.883 16.3366 2.1925C15.2356 1.49148 13.8883 1.08097 12.5557 1.12728C10.5305 1.20307 8.5306 2.36092 7.52011 5.22186Z" fill="black"/>
</svg>
